# xmcd CD database file
#
# Track frame offsets:
#	150
#	15165
#	28895
#	42610
#	59462
#	70027
#	77227
#	89030
#	99970
#	111207
#	123692
#
# Disc length: 1853 seconds
#
# Revision: 0
# Processed by: cddbd v1.4PL0 Copyright (c) Steve Scherf et al.
# Submitted via: CDex 1.50beta10
#
DISCID=93073b0b
DTITLE=Nara Leão - Romance Popular
DYEAR=1981
DGENRE=Jazz
TTITLE0=Amor nas Estrelas
TTITLE1=Laranja da China
TTITLE2=Bloco do Prazer
TTITLE3=Seja o Meu Céu
TTITLE4=Romance Popular
TTITLE5=Moça Bonita
TTITLE6=Por Um Triz
TTITLE7=Traduzir-se
TTITLE8=Luz Brasileira
TTITLE9=Cli-Clé-Cló
TTITLE10=Marinheira
EXTD=YEAR: 1981
EXTT0=
EXTT1=
EXTT2=
EXTT3=
EXTT4=
EXTT5=
EXTT6=
EXTT7=
EXTT8=
EXTT9=
EXTT10=
PLAYORDER=
